.
 
http://www.scenetime.com    -  Hottest private tracker on the net. !!!

New release on http://www.scenetime.com

        Seed back for speed


...................................NFO:.................................................                                                                                                     
       
     
     
       
       
     
     
                                         
                                         
                EXVID                    
                                         
         
                                         
         Filled the Archives             
                                         
         
                                         
                With:                    
                                         
         
                                         
                                    
     E240                           
                                    
     SP               (C) 2009      
                                         
     
     
     
                                                                                  
                                                                                   
    Wall.Street.Money.Never.Sleeps.2010.iNTERNAL.DVDRip.XviD-EXViDiNT               
                                                                                   
                                                                                  
     
                                                                                               
EXViD aims to iNTERNAL those releases which have been lost in the archives.
EXViD aims to PRE non-internal releases which have poor sources and are likely skipped by others. 
http://www.imdb.com/title/tt1027718/
Subtitles: EN, EN HI, FR, IT, NL, ES
Date: 2012.01

Director: Oliver Stone

Genres: Drama

Plot:
As the global economy teeters on the brink of disaster, a young Wall Street trader partners
with disgraced former Wall Street corporate raider Gordon Gekko on a two-tiered mission: To alert
the financial community to the coming doom, and to find out who was responsible for the death
of the young trader's mentor. 

Cast:
Richard Stratton 	 ... 	Prison Cage Guard 
Harry Kerrigan 	 ... 	Prison Guard 
Michael Douglas 	 ... 	Gordon Gekko 
Carey Mulligan 	 ... 	Winnie Gekko 
Shia LaBeouf 	 ... 	Jake Moore 
Sunil Hirani 	 ... 	 Himself 
Maria Bartiromo 	 ... 	 News Host 
Austin Pendleton 	 ... 	Dr. Masters 
Thomas Belesis 	 ... 	Zabel Trader 
Frank Langella 	 ... 	Louis Zabel 
Eric Purcell 	 ... 	 Jeweler 
Christian Baha 	 ... 	 Hedge Fund Chief 
John Buffalo Mailer 	 ... 	Robby 
Melissa Lee 	 ... 	Newscaster 
Annika Pergament 	 ... 	 Reporter

Stats:
Format                           : AVI
Format/Info                      : Audio Video Interleave
File size                        : 1.37 GiB
Duration                         : 2h 7mn
Overall bit rate                 : 1 535 Kbps
Writing application              : VirtualDubMod 1.5.10.2 (build 2540/release)
Writing library                  : VirtualDubMod build 2540/release

Video
ID                               : 0
Format                           : MPEG-4 Visual
Format profile                   : Advanced Simple@L5
Format settings, BVOP            : Yes
Format settings, QPel            : No
Format settings, GMC             : No warppoints
Format settings, Matrix          : Default (H.263)
Muxing mode                      : Packed bitstream
Codec ID                         : XVID
Codec ID/Hint                    : XviD
Duration                         : 2h 7mn
Bit rate                         : 1 077 Kbps
Width                            : 640 pixels
Height                           : 272 pixels
Display aspect ratio             : 2.35:1
Frame rate                       : 25.000 fps
Color space                      : YUV
Chroma subsampling               : 4:2:0
Bit depth                        : 8 bits
Scan type                        : Progressive
Bits/(Pixel*Frame)               : 0.248
Stream size                      : 983 MiB (70%)
Writing library                  : XviD 62

Audio
ID                               : 1
Format                           : AC-3
Format/Info                      : Audio Coding 3
Mode extension                   : CM (complete main)
Codec ID                         : 2000
Duration                         : 2h 7mn
Bit rate mode                    : Constant
Bit rate                         : 448 Kbps
Channel(s)                       : 6 channels
Channel positions                : Front: L C R, Side: L R, LFE
Sampling rate                    : 48.0 KHz
Bit depth                        : 16 bits
Stream size                      : 409 MiB (29%)
Alignment                        : Split accross interleaves
Interleave, duration             : 40 ms (1.00 video frame)
Interleave, preload duration     : 500 ms




Release notes:
enjoy!

Looking for:
75TB+ Archives
DUTCH/FLEMiSH Archives
                                                                                                    
Greets: CRBS EPiSODE FiCO FLS iLS KLASSiGER LiPSYNC MADE NODLABS RUNNER SPRiNTER      
   

                                                                    ASCII DONE BY XX^NFO 2oo9